<mxfile host="app.diagrams.net" modified="2023-05-08T03:30:00.558Z" agent="Mozilla/5.0 (Windows NT 10.0; Win64; x64) AppleWebKit/537.36 (KHTML, like Gecko) Chrome/113.0.0.0 Safari/537.36" etag="hYWDvxilctZx4mj0CzII" version="21.2.9" type="github">
  <diagram name="Page-1" id="ynmLbQaqc_oN6MSEhX8J">
    <mxGraphModel dx="878" dy="496" grid="1" gridSize="10" guides="1" tooltips="1" connect="1" arrows="1" fold="1" page="1" pageScale="1" pageWidth="850" pageHeight="1100" math="0" shadow="0">
      <root>
        <mxCell id="0" />
        <mxCell id="1" parent="0" />
        <mxCell id="psgFZKwPW8My7SOQuGv2-1" value="One pager description" style="strokeWidth=2;html=1;shape=mxgraph.flowchart.document2;whiteSpace=wrap;size=0.25;rounded=1;" vertex="1" parent="1">
          <mxGeometry x="70" y="220" width="100" height="60" as="geometry" />
        </mxCell>
        <mxCell id="psgFZKwPW8My7SOQuGv2-2" value="specification" style="strokeWidth=2;html=1;shape=mxgraph.flowchart.multi-document;whiteSpace=wrap;rounded=1;" vertex="1" parent="1">
          <mxGeometry x="310" y="110" width="100" height="60" as="geometry" />
        </mxCell>
        <mxCell id="psgFZKwPW8My7SOQuGv2-3" value="Development&amp;nbsp;" style="rounded=1;whiteSpace=wrap;html=1;absoluteArcSize=1;arcSize=14;strokeWidth=2;" vertex="1" parent="1">
          <mxGeometry x="310" y="200" width="82" height="80" as="geometry" />
        </mxCell>
        <mxCell id="psgFZKwPW8My7SOQuGv2-4" value="Validation" style="rounded=1;whiteSpace=wrap;html=1;absoluteArcSize=1;arcSize=14;strokeWidth=2;" vertex="1" parent="1">
          <mxGeometry x="310" y="330" width="82" height="80" as="geometry" />
        </mxCell>
        <mxCell id="psgFZKwPW8My7SOQuGv2-5" value="Initial version" style="strokeWidth=2;html=1;shape=mxgraph.flowchart.document2;whiteSpace=wrap;size=0.25;rounded=1;" vertex="1" parent="1">
          <mxGeometry x="530" y="110" width="100" height="60" as="geometry" />
        </mxCell>
        <mxCell id="psgFZKwPW8My7SOQuGv2-6" value="Intermediate&amp;nbsp;&lt;br&gt;versions" style="strokeWidth=2;html=1;shape=mxgraph.flowchart.multi-document;whiteSpace=wrap;rounded=1;" vertex="1" parent="1">
          <mxGeometry x="530" y="210" width="130" height="80" as="geometry" />
        </mxCell>
        <mxCell id="psgFZKwPW8My7SOQuGv2-7" value="Final version" style="strokeWidth=2;html=1;shape=mxgraph.flowchart.document2;whiteSpace=wrap;size=0.25;rounded=1;" vertex="1" parent="1">
          <mxGeometry x="520" y="350" width="130" height="70" as="geometry" />
        </mxCell>
        <mxCell id="psgFZKwPW8My7SOQuGv2-10" value="" style="endArrow=classic;html=1;rounded=1;exitX=1;exitY=0.5;exitDx=0;exitDy=0;exitPerimeter=0;entryX=-0.037;entryY=0.625;entryDx=0;entryDy=0;entryPerimeter=0;" edge="1" parent="1" source="psgFZKwPW8My7SOQuGv2-1" target="psgFZKwPW8My7SOQuGv2-3">
          <mxGeometry width="50" height="50" relative="1" as="geometry">
            <mxPoint x="180" y="260" as="sourcePoint" />
            <mxPoint x="240" y="250" as="targetPoint" />
          </mxGeometry>
        </mxCell>
        <mxCell id="psgFZKwPW8My7SOQuGv2-11" value="" style="endArrow=classic;html=1;rounded=1;entryX=-0.02;entryY=0.817;entryDx=0;entryDy=0;entryPerimeter=0;" edge="1" parent="1" target="psgFZKwPW8My7SOQuGv2-2">
          <mxGeometry width="50" height="50" relative="1" as="geometry">
            <mxPoint x="170" y="250" as="sourcePoint" />
            <mxPoint x="220" y="200" as="targetPoint" />
          </mxGeometry>
        </mxCell>
        <mxCell id="psgFZKwPW8My7SOQuGv2-12" value="" style="endArrow=classic;html=1;rounded=1;" edge="1" parent="1">
          <mxGeometry width="50" height="50" relative="1" as="geometry">
            <mxPoint x="170" y="250" as="sourcePoint" />
            <mxPoint x="310" y="390" as="targetPoint" />
          </mxGeometry>
        </mxCell>
        <mxCell id="psgFZKwPW8My7SOQuGv2-13" value="" style="endArrow=classic;html=1;rounded=1;entryX=0.02;entryY=0.633;entryDx=0;entryDy=0;entryPerimeter=0;exitX=1.02;exitY=0.667;exitDx=0;exitDy=0;exitPerimeter=0;" edge="1" parent="1" source="psgFZKwPW8My7SOQuGv2-2" target="psgFZKwPW8My7SOQuGv2-5">
          <mxGeometry width="50" height="50" relative="1" as="geometry">
            <mxPoint x="420" y="160" as="sourcePoint" />
            <mxPoint x="470" y="110" as="targetPoint" />
          </mxGeometry>
        </mxCell>
        <mxCell id="psgFZKwPW8My7SOQuGv2-14" value="" style="endArrow=classic;html=1;rounded=1;entryX=1;entryY=0.4;entryDx=0;entryDy=0;entryPerimeter=0;exitX=0;exitY=0.383;exitDx=0;exitDy=0;exitPerimeter=0;" edge="1" parent="1" source="psgFZKwPW8My7SOQuGv2-5" target="psgFZKwPW8My7SOQuGv2-2">
          <mxGeometry width="50" height="50" relative="1" as="geometry">
            <mxPoint x="520" y="140" as="sourcePoint" />
            <mxPoint x="490" y="100" as="targetPoint" />
          </mxGeometry>
        </mxCell>
        <mxCell id="psgFZKwPW8My7SOQuGv2-15" value="" style="endArrow=classic;html=1;rounded=1;entryX=-0.017;entryY=0.225;entryDx=0;entryDy=0;entryPerimeter=0;" edge="1" parent="1" target="psgFZKwPW8My7SOQuGv2-6">
          <mxGeometry width="50" height="50" relative="1" as="geometry">
            <mxPoint x="392" y="230" as="sourcePoint" />
            <mxPoint x="442" y="180" as="targetPoint" />
          </mxGeometry>
        </mxCell>
        <mxCell id="psgFZKwPW8My7SOQuGv2-16" value="" style="endArrow=classic;html=1;rounded=1;exitX=-0.008;exitY=0.6;exitDx=0;exitDy=0;exitPerimeter=0;entryX=1;entryY=0.75;entryDx=0;entryDy=0;" edge="1" parent="1" source="psgFZKwPW8My7SOQuGv2-6" target="psgFZKwPW8My7SOQuGv2-3">
          <mxGeometry width="50" height="50" relative="1" as="geometry">
            <mxPoint x="410" y="280" as="sourcePoint" />
            <mxPoint x="460" y="230" as="targetPoint" />
          </mxGeometry>
        </mxCell>
        <mxCell id="psgFZKwPW8My7SOQuGv2-17" value="" style="endArrow=classic;html=1;rounded=1;entryX=0;entryY=0.143;entryDx=0;entryDy=0;entryPerimeter=0;" edge="1" parent="1" target="psgFZKwPW8My7SOQuGv2-7">
          <mxGeometry width="50" height="50" relative="1" as="geometry">
            <mxPoint x="392" y="360" as="sourcePoint" />
            <mxPoint x="442" y="310" as="targetPoint" />
          </mxGeometry>
        </mxCell>
        <mxCell id="psgFZKwPW8My7SOQuGv2-18" value="" style="endArrow=classic;html=1;rounded=1;entryX=1;entryY=0.75;entryDx=0;entryDy=0;" edge="1" parent="1" target="psgFZKwPW8My7SOQuGv2-4">
          <mxGeometry width="50" height="50" relative="1" as="geometry">
            <mxPoint x="522" y="392" as="sourcePoint" />
            <mxPoint x="470" y="350" as="targetPoint" />
          </mxGeometry>
        </mxCell>
        <mxCell id="psgFZKwPW8My7SOQuGv2-19" value="" style="endArrow=classic;startArrow=classic;html=1;rounded=1;entryX=0.43;entryY=0.883;entryDx=0;entryDy=0;entryPerimeter=0;exitX=0.5;exitY=0;exitDx=0;exitDy=0;" edge="1" parent="1" source="psgFZKwPW8My7SOQuGv2-3" target="psgFZKwPW8My7SOQuGv2-2">
          <mxGeometry width="50" height="50" relative="1" as="geometry">
            <mxPoint x="335" y="200" as="sourcePoint" />
            <mxPoint x="385" y="150" as="targetPoint" />
          </mxGeometry>
        </mxCell>
        <mxCell id="psgFZKwPW8My7SOQuGv2-20" value="" style="endArrow=classic;startArrow=classic;html=1;rounded=1;entryX=0.5;entryY=1;entryDx=0;entryDy=0;exitX=0.488;exitY=0;exitDx=0;exitDy=0;exitPerimeter=0;" edge="1" parent="1" source="psgFZKwPW8My7SOQuGv2-4" target="psgFZKwPW8My7SOQuGv2-3">
          <mxGeometry width="50" height="50" relative="1" as="geometry">
            <mxPoint x="335" y="330" as="sourcePoint" />
            <mxPoint x="385" y="280" as="targetPoint" />
          </mxGeometry>
        </mxCell>
        <mxCell id="psgFZKwPW8My7SOQuGv2-21" value="Concurrent procceses" style="text;strokeColor=none;align=center;fillColor=none;html=1;verticalAlign=middle;whiteSpace=wrap;rounded=0;" vertex="1" parent="1">
          <mxGeometry x="290" y="50" width="140" height="30" as="geometry" />
        </mxCell>
      </root>
    </mxGraphModel>
  </diagram>
</mxfile>
